# xmcd
#
# Track frame offsets: 
#        150
#        22981
#        42496
#        71009
#        85024
#        109831
#        133563
#        159197
#        184043
#        211891
#        237365
#        255208
#
# Disc length: 3653 seconds
#
# Revision: 0
# Processed by: cddbd v1.5.2PL0 Copyright (c) Steve Scherf et al.
# Submitted via: ExactAudioCopyFreeDBPlugin 1.0
#
DISCID=930e430c
DTITLE=Tank - Stronger (Deluxe Edition)
DYEAR=2014
DGENRE=R&B
TTITLE0=You're My Star
TTITLE1=Nobody Better
TTITLE2=Dance With Me
TTITLE3=I Gotta Have It
TTITLE4=Missing You
TTITLE5=Same Way
TTITLE6=Hope This Makes You Love Me
TTITLE7=Stronger
TTITLE8=Thanking You
TTITLE9=If That's What It Takes
TTITLE10=Incredible (Bonus)
TTITLE11=Without You (Bonus)
EXTD=
EXTT0=
EXTT1=
EXTT2=
EXTT3=
EXTT4=
EXTT5=
EXTT6=
EXTT7=
EXTT8=
EXTT9=
EXTT10=
EXTT11=
PLAYORDER=
